<svg width="42" height="43" viewBox="0 0 42 43" fill="none" xmlns="http://www.w3.org/2000/svg">
<ellipse cx="21" cy="21.6997" rx="21" ry="20.7665" fill="#191919" fill-opacity="0.1"/>
<path d="M16.1806 16.9335C16.1806 16.0581 16.4633 15.2025 16.9928 14.4747C17.5224 13.7469 18.2752 13.1797 19.1559 12.8447C20.0365 12.5097 21.0056 12.4221 21.9405 12.5929C22.8755 12.7636 23.7342 13.1851 24.4083 13.8041C25.0823 14.423 25.5414 15.2116 25.7273 16.0701C25.9133 16.9285 25.8178 17.8184 25.4531 18.6271C25.0883 19.4358 24.4705 20.127 23.6779 20.6132C22.8853 21.0995 21.9535 21.3591 21.0003 21.3591C19.7224 21.3579 18.4972 20.8913 17.5936 20.0616C16.6901 19.2319 16.1819 18.1069 16.1806 16.9335ZM21.0003 22.8343C19.0835 22.8363 17.2459 23.5363 15.8906 24.7808C14.5352 26.0254 13.7729 27.7128 13.7708 29.4728C13.7708 29.6684 13.8554 29.856 14.006 29.9944C14.1567 30.1327 14.361 30.2104 14.574 30.2104H27.4265C27.6395 30.2104 27.8439 30.1327 27.9945 29.9944C28.1451 29.856 28.2298 29.6684 28.2298 29.4728C28.2276 27.7128 27.4653 26.0254 26.1099 24.7808C24.7546 23.5363 22.917 22.8363 21.0003 22.8343Z" fill="#191919" fill-opacity="0.3"/>
</svg>
