<svg width="9" height="16" viewBox="0 0 9 16" fill="none" xmlns="http://www.w3.org/2000/svg">
<path d="M6.1301 7.18817C6.2477 7.29441 6.34104 7.42081 6.40474 7.56007C6.46844 7.69933 6.50123 7.84869 6.50123 7.99956C6.50123 8.15042 6.46844 8.29979 6.40474 8.43905C6.34104 8.57831 6.2477 8.7047 6.1301 8.81094L0.371132 14.0449C0.253533 14.1512 0.160191 14.2776 0.0964929 14.4168C0.0327941 14.5561 1.13174e-07 14.7054 9.99851e-08 14.8563C8.67964e-08 15.0072 0.0327941 15.1565 0.0964928 15.2958C0.160191 15.4351 0.253532 15.5614 0.371132 15.6677C0.606211 15.8805 0.924212 16 1.25568 16C1.58715 16 1.90515 15.8805 2.14023 15.6677L7.8992 10.4223C8.60408 9.77945 9 8.90808 9 7.99956C9 7.09103 8.60408 6.21966 7.8992 5.57684L2.14023 0.33143C1.90653 0.120305 1.59111 0.00128204 1.26195 1.93507e-05C1.09683 -0.000849461 0.933141 0.0279763 0.780274 0.0848467C0.627408 0.141717 0.48837 0.225514 0.371133 0.33143C0.253534 0.437667 0.160192 0.564059 0.0964941 0.703319C0.0327953 0.842579 1.31205e-06 0.991948 1.29886e-06 1.14281C1.28567e-06 1.29367 0.0327953 1.44304 0.096494 1.5823C0.160192 1.72156 0.253534 1.84795 0.371133 1.95419L6.1301 7.18817Z" fill="#191919" fill-opacity="0.7"/>
</svg>
