<svg width="31" height="30" viewBox="0 0 31 30" fill="none" xmlns="http://www.w3.org/2000/svg">
<path d="M15 0C17.2962 0 19.4734 0.519086 21.4209 1.44531C20.5323 2.55702 20 3.96609 20 5.5C20 9.08985 22.9101 12 26.5 12C27.5931 12 28.6223 11.7286 29.5264 11.252C29.8357 12.4503 30 13.7063 30 15C30 23.2712 23.2712 30 15 30C6.72875 30 0 23.2712 0 15C0 6.72875 6.72875 0 15 0ZM8.125 13.125C7.09 13.125 6.25 13.965 6.25 15C6.25 16.035 7.09 16.875 8.125 16.875C9.16 16.875 10 16.035 10 15C10 13.965 9.16 13.125 8.125 13.125ZM15 13.125C13.965 13.125 13.125 13.965 13.125 15C13.125 16.035 13.965 16.875 15 16.875C16.035 16.875 16.875 16.035 16.875 15C16.875 13.965 16.035 13.125 15 13.125ZM21.875 13.125C20.84 13.125 20 13.965 20 15C20 16.035 20.84 16.875 21.875 16.875C22.91 16.875 23.75 16.035 23.75 15C23.75 13.965 22.91 13.125 21.875 13.125Z" fill="#191919" fill-opacity="0.5"/>
<circle cx="26.5" cy="5.5" r="4.5" fill="#DC0A0A"/>
<path d="M25.315 3.639L26.883 3.065H26.974V8H26.288V3.947L25.315 4.304V3.639Z" fill="white"/>
</svg>
