<svg width="10" height="13" viewBox="0 0 10 13" fill="none" xmlns="http://www.w3.org/2000/svg">
<path d="M4.99008 0C7.49683 0 9.76483 1.95678 9.76483 4.9831C9.76483 7.00065 8.17126 9.3889 4.99008 12.1539C1.80891 9.3889 0.215332 7.00065 0.215332 4.9831C0.215332 1.95678 2.48334 0 4.99008 0ZM8.57115 4.9831C8.57115 2.77717 6.98951 1.21539 4.99008 1.21539C2.99066 1.21539 1.40902 2.77717 1.40902 4.9831C1.40902 6.40511 2.57287 8.28897 4.99008 10.5374C7.4073 8.28897 8.57115 6.40511 8.57115 4.9831ZM4.99008 6.07696C4.33355 6.07696 3.7964 5.53003 3.7964 4.86156C3.7964 4.1931 4.33355 3.64617 4.99008 3.64617C5.64661 3.64617 6.18377 4.1931 6.18377 4.86156C6.18377 5.53003 5.64661 6.07696 4.99008 6.07696Z" fill="#2115FE"/>
</svg>
