<svg width="9" height="16" viewBox="0 0 9 16" fill="none" xmlns="http://www.w3.org/2000/svg">
<path d="M2.8699 8.81182C2.7523 8.70559 2.65896 8.57919 2.59526 8.43993C2.53156 8.30067 2.49877 8.15131 2.49877 8.00044C2.49877 7.84958 2.53156 7.70021 2.59526 7.56095C2.65896 7.42169 2.7523 7.2953 2.8699 7.18906L8.62887 1.95508C8.74647 1.84884 8.83981 1.72245 8.90351 1.58319C8.96721 1.44393 9 1.29456 9 1.1437C9 0.992835 8.96721 0.843465 8.90351 0.704206C8.83981 0.564946 8.74647 0.438552 8.62887 0.332315C8.39379 0.119469 8.07579 0 7.74432 0C7.41285 0 7.09485 0.119469 6.85977 0.332315L1.1008 5.57773C0.395923 6.22055 0 7.09192 0 8.00044C0 8.90897 0.395923 9.78034 1.1008 10.4232L6.85977 15.6686C7.09347 15.8797 7.4089 15.9987 7.73805 16C7.90317 16.0008 8.06686 15.972 8.21973 15.9152C8.37259 15.8583 8.51163 15.7745 8.62887 15.6686C8.74647 15.5623 8.83981 15.4359 8.90351 15.2967C8.96721 15.1574 9 15.0081 9 14.8572C9 14.7063 8.96721 14.557 8.90351 14.4177C8.83981 14.2784 8.74647 14.152 8.62887 14.0458L2.8699 8.81182Z" fill="#191919"/>
</svg>
