<svg width="24" height="26" viewBox="0 0 24 26" fill="none" xmlns="http://www.w3.org/2000/svg">
<path d="M12.0001 17.3335C12.5081 17.3344 13.0093 17.218 13.4641 16.9933L15.6459 15.91C16.758 15.3617 17.4594 14.2332 17.4546 13.0002V9.78598C17.4585 8.55409 16.7571 7.42707 15.6459 6.87945L13.4641 5.79614C12.5422 5.34115 11.459 5.34115 10.5372 5.79614L8.35533 6.87945C7.24373 7.42676 6.54188 8.55389 6.54551 9.78598V13.0002C6.54152 14.2324 7.24286 15.3598 8.35426 15.9078L10.5361 16.9912C10.9907 17.2166 11.4919 17.3338 12.0001 17.3335ZM8.72735 13.0002V9.78598C8.72909 9.67548 8.74785 9.56585 8.78298 9.46099L11.1612 10.6418C11.6893 10.9039 12.3109 10.9039 12.839 10.6418L15.2172 9.46099C15.2523 9.56585 15.2711 9.67548 15.2729 9.78598V13.0002C15.2746 13.4112 15.0405 13.7874 14.6696 13.9698L12.4878 15.0531C12.1801 15.2042 11.8191 15.2042 11.5114 15.0531L9.32958 13.9698C8.959 13.7871 8.7254 13.411 8.72735 13.0002ZM19.6364 23.8334H16.6812L20.4851 20.3429C25.1715 15.6893 25.1716 8.14419 20.4854 3.4904C15.7992 -1.1634 8.20126 -1.16345 3.51486 3.49014C-1.17153 8.14374 -1.17163 15.6889 3.51461 20.3427C3.52489 20.3529 7.319 23.8334 7.319 23.8334H4.36373C3.76124 23.8334 3.27284 24.3184 3.27284 24.9167C3.27284 25.515 3.76124 26 4.36373 26H19.6365C20.239 26 20.7274 25.515 20.7274 24.9167C20.7274 24.3184 20.2389 23.8334 19.6364 23.8334ZM5.05755 5.0226C8.88337 1.20633 15.1002 1.19252 18.9432 4.99173C22.7862 8.79094 22.8001 14.9645 18.9743 18.7808L14.627 22.7685C13.1432 24.1573 10.8242 24.1492 9.35029 22.75L5.05755 18.8111C1.22922 15.0011 1.22927 8.83268 5.05755 5.0226Z" fill="white"/>
</svg>
