<svg width="26" height="26" viewBox="0 0 26 26" fill="none" xmlns="http://www.w3.org/2000/svg">
<path d="M18.6842 11.1356C19.2075 11.648 19.8954 11.9037 20.5833 11.9037C21.2713 11.9037 21.9592 11.648 22.4813 11.1356L24.4129 9.24625C26.5254 7.13375 26.5254 3.69742 24.4129 1.586C23.3903 0.563333 22.0296 0 20.5833 0C19.1371 0 17.7764 0.563333 16.7527 1.586C14.6413 3.6985 14.6413 7.13483 16.7613 9.25492L18.6842 11.1356ZM18.2845 3.11892C18.8988 2.50467 19.7145 2.16667 20.5833 2.16667C21.4522 2.16667 22.2679 2.50467 22.8811 3.11783C24.1486 4.38533 24.1486 6.44692 22.8898 7.70575L20.9668 9.58642C20.7556 9.79442 20.4111 9.79442 20.1998 9.58642L18.2856 7.71442C17.0192 6.44692 17.0192 4.38533 18.2856 3.11783L18.2845 3.11892ZM4.33333 23.8333C4.33333 25.0304 3.36375 26 2.16667 26C0.969583 26 0 25.0304 0 23.8333C0 22.6363 0.969583 21.6667 2.16667 21.6667C3.36375 21.6667 4.33333 22.6363 4.33333 23.8333ZM15.7083 17.3333C15.7083 18.5304 14.7388 19.5 13.5417 19.5C12.3446 19.5 11.375 18.5304 11.375 17.3333C11.375 16.1363 12.3446 15.1667 13.5417 15.1667C14.7388 15.1667 15.7083 16.1363 15.7083 17.3333ZM2.16667 14.0833C2.16667 11.6935 4.11017 9.75 6.5 9.75H14.0833C14.6813 9.75 15.1667 10.2353 15.1667 10.8333C15.1667 11.4313 14.6813 11.9167 14.0833 11.9167H6.5C5.30508 11.9167 4.33333 12.8884 4.33333 14.0833C4.33333 15.2783 5.30508 16.25 6.5 16.25H8.66667C9.26467 16.25 9.75 16.7353 9.75 17.3333C9.75 17.9313 9.26467 18.4167 8.66667 18.4167H6.5C4.11017 18.4167 2.16667 16.4732 2.16667 14.0833ZM26 20.5833C26 22.9732 24.0565 24.9167 21.6667 24.9167H7.58333C6.98533 24.9167 6.5 24.4313 6.5 23.8333C6.5 23.2353 6.98533 22.75 7.58333 22.75H21.6667C22.8616 22.75 23.8333 21.7783 23.8333 20.5833C23.8333 19.3884 22.8616 18.4167 21.6667 18.4167H18.4167C17.8187 18.4167 17.3333 17.9313 17.3333 17.3333C17.3333 16.7353 17.8187 16.25 18.4167 16.25H21.6667C24.0565 16.25 26 18.1935 26 20.5833ZM21.6677 5.18592C21.6677 5.78392 21.1824 6.26925 20.5844 6.26925C19.9864 6.26925 19.5011 5.78392 19.5011 5.18592C19.5011 4.58792 19.9864 4.10258 20.5844 4.10258C21.1824 4.10258 21.6677 4.58792 21.6677 5.18592Z" fill="white"/>
</svg>
